<svg xmlns="http://www.w3.org/2000/svg" version="1.2" viewBox="0 0 300 300" baseProfile="tiny-ps">  <title>Pagopa S.p.a.</title>  <rect width="300" height="300" fill="#0066CC"/>  <path d="M190.946,139.735l-0.058,16.724h-12.226V100h12.341h1.385h8.881c7.266,0,10.957,1.961,11.015,5.882  v27.567c0,3.921-3.518,5.824-10.612,5.824h-10.669v0.462H190.946z M200,106.517h-9.17v26.182H200V106.517z" fill="#FFFFFF"/>  <path d="M60.323,156.517l-0.058,16.724H50v-56.459h10.323h1.153h7.439c6.113,0,9.17,1.961,9.227,5.882v27.567  c0,3.921-2.941,5.824-8.881,5.824h-8.939V156.517z M67.935,123.356h-7.67v26.183h7.67V123.356L67.935,123.356z" fill="#FFFFFF"/>  <path d="M109.746,156.055H90.254c-5.709,0-8.593-1.96-8.593-5.882l0.058-11.476  c0-3.864,2.941-5.825,8.881-5.883h8.939v-9.458h-7.67l-0.058,5.191H81.776v-5.883c0-3.864,2.999-5.767,8.997-5.767l10.034-0.115  c5.94,0,8.939,1.961,8.939,5.825V156.055z M91.926,149.481h7.728l-0.058-10.092h-7.67V149.481L91.926,149.481z" fill="#FFFFFF"/>  <path d="M132.18,156.055h-8.997c-5.94,0-8.881-1.96-8.881-5.824v-27.567c0.058-3.921,3.114-5.882,9.227-5.882  h7.44h1.269h10.207v50.634c0,3.922-2.999,5.883-8.939,5.883h-10.207c-5.94,0-8.939-1.961-8.939-5.883v-5.824h10.207v5.19h7.671  v-10.265L132.18,156.055z M124.51,149.481h7.67v-26.125h-7.67V149.481z" fill="#FFFFFF"/>  <path d="M174.048,150.173c-0.057,3.922-3.114,5.825-9.227,5.825h-9.919c-5.998,0-8.997-1.961-8.997-5.825  v-27.566c0-3.922,2.999-5.825,8.997-5.825h10.208c5.94,0,8.881,1.961,8.881,5.825v27.566H174.048z M163.899,123.356h-7.728v26.183  h7.67L163.899,123.356z" fill="#FFFFFF"/>  <path d="M249.942,106.171c0-3.922-3.518-5.825-10.611-5.825h-12.226c-7.151,0-10.727,1.961-10.727,5.825  v50.403h12.226v-17.243h9.228v14.418c0,36.908-29.816,66.724-66.725,66.724c-21.395,0-40.484-10.092-52.71-25.721l6.113-4.671  l-24.568-16.552l1.096,34.891l7.843-6.229c14.418,18.455,36.967,30.335,62.226,30.335c43.599,0,78.893-35.352,78.893-78.893  L249.942,106.171z M237.774,132.757h-9.227v-25.952h9.227V132.757z" fill="#FFFFFF"/></svg>